<svg version="1.1" xmlns="http://www.w3.org/2000/svg"
     width="100%" height="100%" viewBox="0 0 340.000000 250.000000" preserveAspectRatio="xMidYMid meet"
     color-interpolation-filters="sRGB" class="el-tooltip" style="margin: auto;">
    <rect x="0" y="0" width="100%" height="100%" fill="#fff" fill-opacity="1"></rect>
    <rect x="0" y="0" width="100%" height="100%" fill="url(#watermark)" fill-opacity="1"
          class="watermarklayer"></rect>
    <g fill="#ce2079" class="icon-text-wrapper icon-svg-group iconsvg"
       transform="translate(82.38499450683594,93.46201133728027)">
        <g class="iconsvg-imagesvg" transform="translate(0,1.5379886627197266)">
            <rect fill="#ce2079" fill-opacity="0" stroke-width="2" x="0" y="0" width="60" height="60"
                  class="image-rect"></rect>
            <svg x="0" y="0" width="60" height="60" class="image-svg-svg">
                <svg version="1.1" id="cube" xmlns="http://www.w3.org/2000/svg" x="0px" y="0px"
                     viewBox="7.150000095367432 6.460000038146973 496.92999267578125 496.92999267578125"
                     enable-background="new 0 0 511 507.62" xml:space="preserve">
                    <g>
                        <path fill="#B94293" d="M503.4,273.42c0.45-6.11,0.68-12.27,0.68-18.5c0-26.06-4.02-51.18-11.46-74.78
                            c-6.55-20.77-30.1-27.68-48.97-16.79l-60.59,34.98c-18.86,10.89-18.26,27.41,1.35,36.89l81.44,39.4
                            C485.46,284.13,502.64,283.62,503.4,273.42z"></path>
                        <path fill="#CE2079" d="M371.87,182.03l62.25-35.94c18.86-10.89,25.22-35.07,11.14-51.69c-19.94-23.53-44.19-43.3-71.52-58.09
                            c-19.15-10.37-36.03,1.72-36.03,23.5v102.51C337.71,184.09,353.01,192.92,371.87,182.03z"></path>
                        <path fill="#B3156D" d="M38.91,133.32C18.69,169.26,7.15,210.75,7.15,254.93c0,29.48,5.14,57.76,14.57,83.99
                            c7.37,20.5,31.53,27.07,50.39,16.18l200.54-115.78c18.86-10.89,18.26-27.41-1.34-36.9L96.38,117.79
                            C76.78,108.31,49.59,114.33,38.91,133.32z"></path>
                        <path fill="#C21878" d="M317.99,163.67V53.8c0-21.78-13.67-43.18-30.94-45.37c-10.3-1.3-20.79-1.97-31.44-1.97
                            c-57.39,0-110.23,19.47-152.29,52.15c-17.2,13.36-13.21,34.24,6.39,43.73l172.78,83.59C302.1,195.42,317.99,185.45,317.99,163.67z"></path>
                        <path fill="#CD4593" d="M337.71,273.99v176.06c0,21.78,16.88,33.87,36.03,23.5c50.14-27.15,89.88-71.03,111.74-124.17
                            c8.29-20.14-3.86-45.21-23.47-54.69l-88.8-42.96C353.61,242.24,337.71,252.21,337.71,273.99z"></path>
                        <path fill="#B41685" d="M283.84,255.63L82.32,371.97c-18.86,10.89-24.63,34.71-9.91,50.77c45.42,49.56,110.68,80.65,183.2,80.65
                            c10.65,0,21.14-0.67,31.44-1.97c17.27-2.18,30.94-23.58,30.94-45.37V275.34C317.99,253.56,302.7,244.73,283.84,255.63z"></path>
                    </g>
                </svg>
            </svg> <!---->
        </g>
        <g transform="translate(67,0)">
            <g class="tp-name iconsvg-namesvg" transform="translate(0,0)">
                <g>
                    <path d="M14.71-22.50L18.27-22.50C18.18-20.93 18-19.35 17.82-17.77L13.90-17.77L13.90-16.88L17.68-16.88C16.61-9.27 14.35-1.98 11.07 4.23C16.11 0.45 19.04-3.38 20.84-7.83C21.38-6.48 22.00-5.22 22.77-4.05C20.29-0.72 17.68 2.38 14.98 5.40C18.77 3.87 22.18 1.80 25.24-0.77C27.31 1.53 29.88 3.51 32.94 5.26L36-0.40C33.48-1.44 31.00-2.65 28.66-4.05C30.73-6.25 32.53-8.78 34.20-11.61L29.74-14.58C29.34-13.86 28.89-13.18 28.48-12.51L22.23-12.51C22.54-13.90 22.77-15.34 22.99-16.88L35.68-16.88L35.68-17.77L23.09-17.77C23.27-19.26 23.40-20.84 23.49-22.50L34.88-22.50L34.88-23.40L27.58-23.40L33.03-31.09L28.44-33.25L26.68-23.40L14.71-23.40ZM8.50-34.52L8.50-33.39L6.43-33.39L6.43-34.52L1.75-34.52L1.75-2.65L6.43-2.65L6.43-6.66L8.50-6.66L8.50-4.46L13.23-4.46L13.23-34.52ZM31.09-39.42L15.79-33.07C21.96-32.98 28.57-33.57 34.11-34.78ZM6.43-32.49L8.50-32.49L8.50-20.34L6.43-20.34ZM6.43-19.44L8.50-19.44L8.50-7.56L6.43-7.56ZM17.28-23.80L21.42-26.05C20.29-28.21 18.18-30.33 15.12-31.63ZM22.90-24.48L27-26.73C25.92-28.89 23.80-31.00 20.75-32.35ZM22.00-11.61L27.95-11.61C26.86-9.90 25.79-8.28 24.66-6.71C23.49-7.56 22.36-8.50 21.38-9.45C21.60-10.13 21.82-10.84 22.00-11.61ZM38.61-6.25L44.73-4.59C46.30-9.99 46.13-16.34 44.68-22.50ZM47.88-28.84L47.88-1.26C47.88 3.55 50.17 4.32 53.32 4.32L62.46 4.32C66.06 4.32 67.81 1.71 67.54-2.11L65.11-2.11L64.71-10.93L61.06-2.11L53.73-2.11L53.73-28.84ZM58.23-25.02L63.81-29.29C61.16-33.34 56.70-36.72 51.43-38.34ZM68.67-5.98L74.75-8.10C73.48-13.37 70.42-18.72 65.16-22.68ZM96.03-12.51L96.03-11.52L92.43-11.52L92.43-12.51L87.39-12.51L87.39-0.18L92.43-0.18L92.43-3.01L96.03-3.01L96.03-0.40L99.67-0.40L104.17 2.56L104.13 5.08C107.32 4.91 109.98 2.83 109.98-0.04L109.98-35.82L104.53-35.82L104.53-34.65L93.19-34.65L93.19-33.75L104.53-33.75L104.53-18.36C102.33-18.90 100.17-19.62 98.05-20.47C99.85-22.32 101.47-24.48 102.96-26.82L98.28-30.29C97.78-29.43 97.29-28.57 96.75-27.77L92.79-27.77C93.33-28.66 93.82-29.61 94.32-30.60L90.76-31.99L92.38-33.03C91.03-35.87 87.97-37.80 83.70-39.15L86.89-29.56L89.01-30.87L85.09-18.40C86.89-19.98 88.56-21.73 90.04-23.63C90.63-22.59 91.26-21.64 91.98-20.75C89.59-17.55 87.03-14.67 84.60-12.29C88.38-13.37 91.80-15.12 94.86-17.55C97.06-15.48 99.67-13.86 102.64-12.78L104.53-16.79L104.53-0.99L101.07-0.99L101.07-12.51ZM84.42 5.22L84.42-32.22L79.02-32.22L79.02 5.22ZM92.43-10.62L96.03-10.62L96.03-3.92L92.43-3.92ZM92.25-26.86L96.21-26.86C95.26-25.43 94.32-24.03 93.33-22.63C92.38-23.13 91.44-23.67 90.49-24.25C91.13-25.06 91.71-25.96 92.25-26.86Z"
                          transform="translate(-1.755, 39.42)"></path>
                </g>
            </g>
            <g class="tp-slogan iconsvg-slogansvg" fill="#b41685" transform="translate(0,51.81999969482422)"><!---->
                <rect x="0" height="1" y="5.126739501953125" width="22.16917610168457"></rect>
                <rect height="1" y="5.126739501953125" width="22.16917610168457" x="86.06082725524902"></rect>
                <g transform="translate(25.16917610168457,0)">
                    <path d="M7.17-6.09L7.17-6.09L6.09-6.09Q6-7.73 3.94-7.83L3.94-7.83Q2.02-7.78 2.02-6.33L2.02-6.33Q2.02-5.39 3.05-5.25L3.05-5.25L5.48-4.69Q7.41-4.22 7.41-2.34L7.41-2.34Q7.36 0.05 4.03 0.14L4.03 0.14Q2.20 0.14 1.45-0.61L1.45-0.61Q0.52-1.31 0.56-2.77L0.56-2.77L1.69-2.77Q1.73-0.80 4.03-0.75L4.03-0.75Q6.28-0.80 6.33-2.20L6.33-2.20Q6.52-3.38 4.45-3.75L4.45-3.75L2.67-4.13Q0.84-4.64 0.84-6.19L0.84-6.19Q0.98-8.72 3.84-8.81L3.84-8.81Q7.08-8.81 7.17-6.09ZM9.70-4.36L9.70-4.36L8.72-4.36Q8.77-6.47 11.30-6.47L11.30-6.47Q13.55-6.38 13.59-4.69L13.59-4.69L13.59-1.08Q13.59-0.70 13.97-0.70L13.97-0.70Q14.02-0.70 14.11-0.70L14.11-0.70Q14.25-0.75 14.34-0.75L14.34-0.75L14.34 0Q14.25 0 14.11 0L14.11 0Q13.88 0.05 13.73 0.05L13.73 0.05Q12.61 0.05 12.66-0.84L12.66-0.84Q11.72 0.09 10.36 0.09L10.36 0.09Q8.48 0 8.39-1.64L8.39-1.64Q8.44-3.33 10.31-3.61L10.31-3.61L12.05-3.80Q12.61-3.89 12.61-4.55L12.61-4.55Q12.61-5.58 11.11-5.58L11.11-5.58Q9.80-5.58 9.70-4.36ZM12.56-2.16L12.56-2.16L12.56-3.19Q12.19-2.95 10.83-2.77L10.83-2.77Q9.52-2.67 9.52-1.78L9.52-1.78Q9.52-0.70 10.59-0.70L10.59-0.70Q12.42-0.84 12.56-2.16ZM17.63-1.13L17.67-1.13L19.31-6.28L20.48-6.28Q20.25-5.67 19.83-4.45L19.83-4.45Q18.80-1.59 18.23-0.14L18.23-0.14Q17.44 1.83 17.11 2.06L17.11 2.06Q16.78 2.48 15.75 2.44L15.75 2.44Q15.56 2.44 15.33 2.34L15.33 2.34L15.33 1.41Q15.38 1.41 15.42 1.45L15.42 1.45Q15.70 1.55 15.94 1.55L15.94 1.55Q16.55 1.78 17.06 0.09L17.06 0.09L14.77-6.28L15.94-6.28L17.63-1.13ZM22.36-4.36L22.36-4.36L21.38-4.36Q21.42-6.47 23.95-6.47L23.95-6.47Q26.20-6.38 26.25-4.69L26.25-4.69L26.25-1.08Q26.25-0.70 26.63-0.70L26.63-0.70Q26.67-0.70 26.77-0.70L26.77-0.70Q26.91-0.75 27-0.75L27-0.75L27 0Q26.91 0 26.77 0L26.77 0Q26.53 0.05 26.39 0.05L26.39 0.05Q25.27 0.05 25.31-0.84L25.31-0.84Q24.38 0.09 23.02 0.09L23.02 0.09Q21.14 0 21.05-1.64L21.05-1.64Q21.09-3.33 22.97-3.61L22.97-3.61L24.70-3.80Q25.27-3.89 25.27-4.55L25.27-4.55Q25.27-5.58 23.77-5.58L23.77-5.58Q22.45-5.58 22.36-4.36ZM25.22-2.16L25.22-2.16L25.22-3.19Q24.84-2.95 23.48-2.77L23.48-2.77Q22.17-2.67 22.17-1.78L22.17-1.78Q22.17-0.70 23.25-0.70L23.25-0.70Q25.08-0.84 25.22-2.16ZM28.31-1.27L29.58-1.27L29.58 0L28.31 0L28.31-1.27ZM32.34-4.36L32.34-4.36L31.36-4.36Q31.41-6.47 33.94-6.47L33.94-6.47Q36.19-6.38 36.23-4.69L36.23-4.69L36.23-1.08Q36.23-0.70 36.61-0.70L36.61-0.70Q36.66-0.70 36.75-0.70L36.75-0.70Q36.89-0.75 36.98-0.75L36.98-0.75L36.98 0Q36.89 0 36.75 0L36.75 0Q36.52 0.05 36.38 0.05L36.38 0.05Q35.25 0.05 35.30-0.84L35.30-0.84Q34.36 0.09 33 0.09L33 0.09Q31.13 0 31.03-1.64L31.03-1.64Q31.08-3.33 32.95-3.61L32.95-3.61L34.69-3.80Q35.25-3.89 35.25-4.55L35.25-4.55Q35.25-5.58 33.75-5.58L33.75-5.58Q32.44-5.58 32.34-4.36ZM35.20-2.16L35.20-2.16L35.20-3.19Q34.83-2.95 33.47-2.77L33.47-2.77Q32.16-2.67 32.16-1.78L32.16-1.78Q32.16-0.70 33.23-0.70L33.23-0.70Q35.06-0.84 35.20-2.16ZM42.98-4.13L42.98-4.13L41.95-4.13Q41.81-5.48 40.50-5.48L40.50-5.48Q38.81-5.39 38.72-3.14L38.72-3.14Q38.72-0.70 40.45-0.70L40.45-0.70Q41.72-0.80 41.95-2.20L41.95-2.20L42.98-2.20Q42.61 0.05 40.45 0.09L40.45 0.09Q37.73 0 37.64-2.95L37.64-2.95Q37.73-6.38 40.64-6.47L40.64-6.47Q42.70-6.42 42.98-4.13ZM44.30-1.27L45.56-1.27L45.56 0L44.30 0L44.30-1.27ZM52.31-4.13L52.31-4.13L51.28-4.13Q51.14-5.48 49.83-5.48L49.83-5.48Q48.14-5.39 48.05-3.14L48.05-3.14Q48.05-0.70 49.78-0.70L49.78-0.70Q51.05-0.80 51.28-2.20L51.28-2.20L52.31-2.20Q51.94 0.05 49.78 0.09L49.78 0.09Q47.06 0 46.97-2.95L46.97-2.95Q47.06-6.38 49.97-6.47L49.97-6.47Q52.03-6.42 52.31-4.13ZM58.45-4.27L58.45-4.27L58.45 0L57.42 0L57.42-3.84Q57.52-5.58 56.06-5.48L56.06-5.48Q54.47-5.39 54.42-3.42L54.42-3.42L54.42 0L53.34 0L53.34-6.28L54.38-6.28L54.38-5.39Q55.13-6.47 56.30-6.47L56.30-6.47Q58.41-6.42 58.45-4.27Z"
                          transform="translate(-0.56026785714286, 8.8125)"></path>
                </g>
            </g>
        </g>
    </g>
</svg>